<svg xmlns="http://www.w3.org/2000/svg" width="175" height="40" fill="none"><g fill="#fff" clip-path="url(#clip0)"><path d="M95.468 15.585l-1.58 1.579c-.262.263-.584.41-.964.41h-6.813V4.707h6.813c.38 0 .702.146.965.409l1.579 1.579c.263.263.41.585.41.965v6.959c0 .38-.118.702-.41.965zm-1.9-7.544c0-.088-.03-.205-.118-.263l-.76-.76c-.088-.088-.146-.117-.263-.117H88.42v8.45h4.006c.117 0 .205-.03.263-.117l.76-.76a.357.357 0 00.117-.264V8.04zm5.877 9.532v-2.047h2.309V6.754h-2.31V4.708h6.93v2.046h-2.31v8.772h2.31v2.047h-6.93zm19.853 0l-.292-1.637-1.228 1.228c-.263.263-.585.41-.965.41h-3.918c-.38 0-.702-.147-.965-.41l-1.579-1.58a1.326 1.326 0 01-.409-.964V7.66c0-.38.146-.7.409-.964l1.579-1.579c.263-.263.585-.41.965-.41h5c.38 0 .701.147.965.41l1.666 1.667-1.549 1.55-1.316-1.316c-.088-.088-.146-.117-.263-.117h-4.006c-.117 0-.205.029-.263.117l-.761.76a.36.36 0 00-.117.263v6.199c0 .088.03.204.117.263l.761.76c.087.088.146.117.263.117h3.041c.117 0 .204-.03.263-.117l1.754-1.754c.088-.088.117-.146.117-.263v-.995h-3.187V10.06h5.497v4.97l.497 2.573h-2.076v-.029zm5.38 0v-2.047h2.31V6.754h-2.31V4.708h6.93v2.046h-2.31v8.772h2.31v2.047h-6.93zM140.029 6.9v10.644h-2.31V6.9h-3.713V4.708h9.737V6.9h-3.714zm14.299 10.673l-1.229-3.216h-5.117l-1.228 3.216h-2.31l4.767-12.865h2.748l4.708 12.865h-2.339zm-3.772-10.38l-1.784 5.088h3.567l-1.783-5.088zM160 17.573V4.708h2.31V15.35h6.316v2.193H160v.03zM86.111 35.41V22.543h2.31v10.643h6.316v2.193H86.11v.03zm11.813 0v-2.047h2.31V24.59h-2.31v-2.047h6.93v2.047h-2.31v8.772h2.31v2.046h-6.93zm20.497-1.638l-1.257 1.257a1.28 1.28 0 01-.936.38h-7.164V22.544h7.164c.38 0 .673.146.936.38l1.257 1.257c.263.263.409.585.409.965v1.755c0 .38-.146.701-.409.965l-1.111 1.11 1.111 1.112c.263.263.409.584.409.965v1.783c0 .322-.146.673-.409.936zm-1.901-8.216c0-.117-.029-.205-.116-.264l-.439-.438c-.088-.088-.146-.117-.263-.117h-4.328v3.129h3.86c.088 0 .205-.03.263-.117l.877-.878c.088-.087.117-.146.117-.263v-1.052h.029zm0 5.789c0-.117-.029-.205-.116-.263l-.936-.936c-.088-.088-.146-.117-.263-.117h-3.831v3.158h4.328c.087 0 .204-.03.263-.117l.439-.438c.087-.088.116-.147.116-.264v-1.023zm14.65 4.065l-3.802-4.884a.402.402 0 00-.321-.175h-1.404v5.058h-2.31V22.544h7.164c.38 0 .673.146.936.38l1.257 1.257c.263.263.409.585.409.965v2.544c0 .38-.146.702-.409.965l-1.257 1.257c-.263.263-.556.38-.936.38h-.468l3.977 5.059h-2.836v.058zm-.381-9.854c0-.117-.029-.205-.116-.264l-.439-.438c-.088-.088-.146-.117-.263-.117h-4.328v3.392h4.328c.117 0 .204-.03.263-.117l.439-.41c.087-.087.116-.146.116-.263v-1.783zm15.117 9.854l-1.228-3.217h-5.117l-1.228 3.216h-2.31l4.766-12.865h2.749l4.708 12.865h-2.34zm-3.772-10.38l-1.783 5.087h3.538l-1.755-5.088zm17.106 10.38l-3.801-4.884a.405.405 0 00-.322-.175h-1.404v5.058h-2.309V22.544h7.163c.38 0 .673.146.936.38l1.257 1.257c.263.263.41.585.41.965v2.544c0 .38-.147.702-.41.965l-1.257 1.257c-.263.263-.556.38-.936.38h-.468l3.977 5.059h-2.836v.058zm-.41-9.854c0-.117-.029-.205-.117-.264l-.438-.438c-.088-.088-.146-.117-.263-.117h-4.328v3.392h4.328c.117 0 .204-.03.263-.117l.438-.41c.088-.087.117-.146.117-.263v-1.783zm11.696 4.152v5.672h-2.31v-5.672l-4.356-7.164h2.514l3.012 5 2.982-5h2.486l-4.328 7.164zM12.193 26.199L7.485 13.363H4.737L0 26.199h2.31l1.199-3.216h5.117l1.199 3.216h2.368zm-4.327-5.263h-3.54l1.784-5.088 1.755 5.088zm15.818 3.187l-1.55-1.55-1.315 1.316c-.088.088-.146.117-.263.117h-3.188c-.116 0-.204-.03-.263-.117l-.76-.76a.357.357 0 01-.117-.264v-6.17c0-.087.03-.204.117-.262l.76-.76c.088-.088.146-.117.263-.117h3.188c.116 0 .204.029.263.117l1.316 1.315 1.55-1.55-1.668-1.666a1.326 1.326 0 00-.964-.41H16.87c-.38 0-.701.147-.965.41l-1.579 1.579a1.326 1.326 0 00-.409.965v6.959c0 .38.146.702.41.965l1.578 1.579c.264.263.585.41.965.41h4.182c.38 0 .701-.147.964-.41l1.667-1.696zm15.79 2.076V13.363h-3.538l-3.041 9.941-3.041-9.941h-3.538v12.836h2.251V15.994L31.696 26.2h2.398l3.128-10.205V26.2h2.252zM58.246 3.421l-5.351-1.403-1.404 5.35 3.86-1.052 2.895-2.895zm-4.474 4.532l-7.72 2.106 1.17 4.385 6.55-6.49zm26.17 6.988l1.432-5.467-5.35-1.375 1.081 4.065 2.837 2.777zm-33.1 10.205l-1.433 5.38 5.351 1.375-1.052-3.89-2.866-2.865zM73.333 2.66L68.89 3.89l6.579 6.579-2.135-7.807zm-.409 29.416l7.836-2.134-1.228-4.474-6.608 6.608zM68.45 36.55l5.468 1.433 1.404-5.351-4.065 1.081-2.807 2.837zm-15 .79l4.386-1.17-6.462-6.492 2.076 7.661zm26.2-13.656L83.332 20 71.637 8.304l-4.561-4.561L63.333 0l-6.52 6.52-9.708 9.708L43.333 20l6.58 6.579 9.707 9.707L63.333 40l6.492-6.491 9.824-9.825zm-16.434-.643c0 .35-.117.672-.38.906l-1.491 1.492c-.263.263-.556.38-.906.38h-6.462V13.626h6.462c.35 0 .672.117.906.38l1.491 1.491c.263.263.38.556.38.907v6.637zm3.597-9.415h2.193v10.117H75v2.076h-8.187V13.626z"/><path d="M60.205 15.819a.37.37 0 00-.264-.117h-3.8v8.04h3.8c.117 0 .176-.029.264-.116l.701-.702c.059-.088.117-.175.117-.263v-5.877a.357.357 0 00-.117-.264l-.701-.701z"/></g><defs><clipPath id="clip0"><path fill="#fff" d="M0 0h174.854v40H0z"/></clipPath></defs></svg>