<?xml version="1.0" encoding="UTF-8"?>
<svg width="197px" height="62px" viewBox="0 0 197 62" version="1.1" xmlns="http://www.w3.org/2000/svg" xmlns:xlink="http://www.w3.org/1999/xlink">
    <!-- Generator: Sketch 59.1 (86144) - https://sketch.com -->
    <title>usenix_logo_full_color</title>
    <desc>Created with Sketch.</desc>
    <defs>
        <path d="M24.2270434,13.4994283 C26.2831302,11.4457075 26.8356,10.8932377 29.3897377,8.7969283 C30.1338566,9.42156226 31.1264094,10.2544075 31.8551491,10.8991528 C29.4027509,12.9256642 25.6963528,15.9920491 21.4670604,22.1189038 C19.9291358,21.066017 18.3935774,20.0178623 16.8580189,18.9685245 C16.1351943,20.0841113 15.1864132,21.5818132 14.5085434,22.7246094 C16.9846019,24.3571755 17.243683,24.5287132 19.1897491,25.7590528 C17.8860623,28.1759604 16.8592019,30.0853528 15.6052019,33.417917 C12.9694358,31.9557057 12.6322755,31.7711547 10.8127925,30.6259925 C11.2942811,29.4193132 11.9508566,27.8175057 12.4808491,26.6309377 C10.217734,25.1143075 9.74570943,24.7996245 7.78781321,23.3326811 C7.2732,24.513334 6.59651321,26.0950302 6.13276981,27.2946113 C8.01968491,28.7473585 8.46804906,29.091617 10.8127925,30.6259925 C9.94563962,33.1919604 9.32100566,35.0433849 8.74842453,38.3061509 C11.287183,39.7624472 11.5533623,39.9138736 13.607083,40.8673868 C13.105483,44.6080925 13.1539868,47.6839415 13.5704094,50.2179679 C13.4438264,50.2262491 13.3196094,50.2416283 13.1942094,50.2487264 C8.69282264,50.4865132 4.46707925,48.9970925 1.90347736,44.3691226 C1.85142453,44.2732981 1.80292075,44.1798396 1.75205094,44.0887472 L1.74022075,44.0970283 C1.73193962,44.0816491 1.72365849,44.0662698 1.71656038,44.0544396 C-3.82824906,30.9738 5.57320189,16.0512 8.58635094,11.788783 C9.1920566,12.1779962 9.99887547,12.7020736 10.6010321,13.0960189 C12.4299792,10.6755623 12.8653302,10.0994321 15.171034,7.57486981 C14.5132755,7.24244151 13.6295604,6.80709057 12.9552396,6.50778679 C14.8717302,4.58893019 15.3887094,4.07431698 17.7760415,2.11405472 C19.5103472,2.67953774 20.5573189,3.02024717 23.0913453,4.4268566 C19.7351208,7.19985283 17.2354019,9.42274528 13.2048566,14.8291415 C14.1205132,15.4478604 15.3402057,16.2759736 16.2523132,16.8994245 C18.1522415,14.3878755 18.6017887,13.794 20.9962189,11.1724302 C21.9710264,11.8621302 23.2652491,12.789617 24.2270434,13.4994283 Z M34.5571642,5.34133019 C32.292866,6.69352075 31.7569585,7.01648491 29.3897377,8.7969283 C27.1100604,7.02476604 25.8572434,6.04995849 23.0913453,4.4268566 C25.3237019,2.77299623 25.8536943,2.37905094 28.2812491,0.955879245 C30.6413717,2.32818113 31.7179189,2.95281509 34.5571642,5.34133019 Z M11.3676283,39.0124132 C12.040766,35.9129038 12.0798057,35.7283528 12.9741679,32.9943962 C15.5578811,34.4140189 16.0239906,34.6695509 18.6810509,35.9412962 C17.7180736,39.0029491 17.6778509,39.1212509 17.1667868,41.6221528 C14.4174509,40.503017 13.8448698,40.2699623 11.3676283,39.0124132 Z" id="path-1"></path>
        <linearGradient x1="2.10483832%" y1="50.5026557%" x2="12.2157968%" y2="48.0894658%" id="linearGradient-3">
            <stop stop-color="#521618" offset="0%"></stop>
            <stop stop-color="#D02139" offset="100%"></stop>
        </linearGradient>
        <path d="M27.1483882,35.4195849 L23.8891309,35.4195849 C23.1575189,35.3542603 22.432796,35.24384 21.7166774,35.0871566 C20.3053358,34.6281453 18.4515453,33.9348962 17.0780604,33.3741453 C15.360317,32.5909868 15.301166,32.5554962 12.2418792,30.6756792 C10.9630358,29.7434604 9.30799245,28.4303094 8.10486226,27.402266 C5.56610377,25.018483 3.8874,23.3421453 2.46304528,21.3227321 C1.83841132,20.3100679 1.07418113,18.9247528 0.51224717,17.8813302 C8.28586415,32.6667 30.1705302,20.0841113 38.7639792,4.26596604 C40.4545132,1.15580943 41.3015547,-0.405775472 44.0970283,0.724007547 C52.7839358,5.4170434 55.5640302,7.90256604 55.5758604,7.9191283 C55.9236679,8.34974717 56.6263811,9.61084528 55.612534,11.978066 C48.1363348,25.7792797 37.2440478,34.549374 27.1483882,35.4195849 L27.1483882,35.4195849 Z" id="path-4"></path>
        <linearGradient x1="8.51862561%" y1="53.5539641%" x2="18.7096405%" y2="51.1216682%" id="linearGradient-6">
            <stop stop-color="#F5B95E" offset="0%"></stop>
            <stop stop-color="#D02139" offset="100%"></stop>
        </linearGradient>
    </defs>
    <g id="Designs" stroke="none" stroke-width="1" fill="none" fill-rule="evenodd">
        <g id="Homepage" transform="translate(-96.000000, -33.000000)">
            <g id="menu">
                <g id="usenix_logo_full_color" transform="translate(96.000000, 32.000000)">
                    <path d="M56.3460057,2.36958679 L58.8859472,2.36958679 L58.8859472,17.6766679 L57.1055038,17.6766679 L56.5636811,16.3895434 C54.610517,17.4566264 52.8087792,17.9854358 51.1561019,17.9854358 C50.3173415,17.9854358 49.5897849,17.8553038 48.971066,17.5903075 C48.3499811,17.3300434 47.8708585,17.0011642 47.527783,16.6072189 C47.1894396,16.2156396 46.9149792,15.7175887 46.709134,15.111883 C46.5009226,14.5073604 46.3684245,13.9324132 46.3128226,13.3870415 C46.2572208,12.8381208 46.2264623,12.2134868 46.2264623,11.5119566 L46.2264623,2.36958679 L48.7675868,2.36958679 L48.7675868,11.6953245 C48.7675868,14.3713132 49.9304943,15.7093075 52.2539434,15.7093075 C53.4535245,15.7093075 54.8175453,15.3129962 56.3460057,14.5168245 L56.3460057,2.36958679" id="Fill-1" fill="#1A1919"></path>
                    <path d="M56.3460057,2.36958679 L58.8859472,2.36958679 L58.8859472,17.6766679 L57.1055038,17.6766679 L56.5636811,16.3895434 C54.610517,17.4566264 52.8087792,17.9854358 51.1561019,17.9854358 C50.3173415,17.9854358 49.5897849,17.8553038 48.971066,17.5903075 C48.3499811,17.3300434 47.8708585,17.0011642 47.527783,16.6072189 C47.1894396,16.2156396 46.9149792,15.7175887 46.709134,15.111883 C46.5009226,14.5073604 46.3684245,13.9324132 46.3128226,13.3870415 C46.2572208,12.8381208 46.2264623,12.2134868 46.2264623,11.5119566 L46.2264623,2.36958679 L48.7675868,2.36958679 L48.7675868,11.6953245 C48.7675868,14.3713132 49.9304943,15.7093075 52.2539434,15.7093075 C53.4535245,15.7093075 54.8175453,15.3129962 56.3460057,14.5168245 L56.3460057,2.36958679 Z" id="Stroke-2" stroke="#1A1919" stroke-width="1.1"></path>
                    <path d="M77.1624057,2.07619811 C77.3788981,2.07619811 77.5835604,2.07856415 77.7752094,2.08447925 C77.9644925,2.08921132 78.1514094,2.10222453 78.3312283,2.12233585 C78.5122302,2.14363019 78.6660226,2.15900943 78.7961547,2.1696566 C78.9251038,2.17912075 79.0765302,2.20041509 79.2457019,2.23117358 C79.4160566,2.26074906 79.5402736,2.28322642 79.6159868,2.3009717 C79.6952491,2.31398491 79.8241981,2.34710943 80.006383,2.39443019 C80.1838358,2.43938491 80.2974057,2.46896038 80.3388113,2.47842453 C80.379034,2.4890717 80.5008849,2.52574528 80.7008151,2.58607925 C80.9042943,2.64877925 81.0202302,2.68545283 81.0498057,2.69491698 L80.4003283,4.63151887 C79.0161962,4.24940377 77.7976868,4.05893774 76.7448,4.05893774 C76.1319962,4.05893774 75.5949057,4.12163774 75.1228811,4.24348868 C74.6544057,4.36888868 74.2912189,4.51794906 74.0392358,4.69421887 C73.7872528,4.86930566 73.5814075,5.07396792 73.420517,5.30702264 C73.2584434,5.53771132 73.1567038,5.74237358 73.109383,5.9186434 C73.0644283,6.09373019 73.0395849,6.26290189 73.0395849,6.42970755 C73.0395849,6.85086226 73.2584434,7.2294283 73.6985264,7.55949057 C74.1386094,7.89073585 74.6851642,8.15809811 75.3405566,8.36630943 C75.9959491,8.5709717 76.7069434,8.81703962 77.4723566,9.10096415 C78.2354038,9.38488868 78.9452151,9.68537547 79.6029736,10.0000585 C80.256,10.3159245 80.8049208,10.7548245 81.2438208,11.3238566 C81.6827208,11.8928887 81.9015792,12.5482811 81.9015792,13.2924 C81.9015792,13.7171038 81.8471604,14.1264283 81.7395057,14.5239226 C81.6306679,14.921417 81.4260057,15.3366566 81.1207868,15.7708245 C80.8143849,16.2049925 80.4228057,16.5788264 79.9425,16.8946925 C79.4633774,17.2105585 78.8186321,17.4696396 78.0129962,17.6766679 C77.2073604,17.8836962 76.2834226,17.9854358 75.242366,17.9854358 C73.6606698,17.9854358 71.9251811,17.6009547 70.034717,16.8237113 L70.7480774,14.9036717 C71.8116113,15.2952509 72.6811302,15.5756264 73.359,15.7412491 C74.0345038,15.9068717 74.6993604,15.989683 75.3488377,15.989683 C77.8686679,15.989683 79.128583,15.1875962 79.128583,13.5869717 C79.128583,13.2367981 79.004366,12.9256642 78.7571151,12.6559358 C78.5098642,12.3885736 78.1786189,12.1673491 77.7633792,11.9993604 C77.3516887,11.8278226 76.8855792,11.6515528 76.3626849,11.472917 C75.8397906,11.2907321 75.3097981,11.1227434 74.7679755,10.9677679 C74.2249698,10.8127925 73.6926113,10.6093132 73.1709,10.3561472 C72.6515547,10.1029811 72.1830792,9.82378868 71.7702057,9.52093585 C71.3573321,9.21571698 71.0272698,8.81940566 70.7788358,8.33555094 C70.5304019,7.84933019 70.4061849,7.30277547 70.4061849,6.69352075 C70.4061849,6.32205283 70.4641528,5.94112075 70.5860038,5.55309057 C70.7043057,5.1662434 70.9267132,4.75810189 71.2496774,4.32866604 C71.5773736,3.90159623 71.980783,3.52421321 72.4670038,3.1977 C72.9520415,2.87355283 73.6003358,2.60382453 74.4095208,2.39443019 C75.2198887,2.18148679 76.1390943,2.07619811 77.1624057,2.07619811" id="Fill-4" fill="#1A1919"></path>
                    <path d="M77.1624057,2.07619811 C77.3788981,2.07619811 77.5835604,2.07856415 77.7752094,2.08447925 C77.9644925,2.08921132 78.1514094,2.10222453 78.3312283,2.12233585 C78.5122302,2.14363019 78.6660226,2.15900943 78.7961547,2.1696566 C78.9251038,2.17912075 79.0765302,2.20041509 79.2457019,2.23117358 C79.4160566,2.26074906 79.5402736,2.28322642 79.6159868,2.3009717 C79.6952491,2.31398491 79.8241981,2.34710943 80.006383,2.39443019 C80.1838358,2.43938491 80.2974057,2.46896038 80.3388113,2.47842453 C80.379034,2.4890717 80.5008849,2.52574528 80.7008151,2.58607925 C80.9042943,2.64877925 81.0202302,2.68545283 81.0498057,2.69491698 L80.4003283,4.63151887 C79.0161962,4.24940377 77.7976868,4.05893774 76.7448,4.05893774 C76.1319962,4.05893774 75.5949057,4.12163774 75.1228811,4.24348868 C74.6544057,4.36888868 74.2912189,4.51794906 74.0392358,4.69421887 C73.7872528,4.86930566 73.5814075,5.07396792 73.420517,5.30702264 C73.2584434,5.53771132 73.1567038,5.74237358 73.109383,5.9186434 C73.0644283,6.09373019 73.0395849,6.26290189 73.0395849,6.42970755 C73.0395849,6.85086226 73.2584434,7.2294283 73.6985264,7.55949057 C74.1386094,7.89073585 74.6851642,8.15809811 75.3405566,8.36630943 C75.9959491,8.5709717 76.7069434,8.81703962 77.4723566,9.10096415 C78.2354038,9.38488868 78.9452151,9.68537547 79.6029736,10.0000585 C80.256,10.3159245 80.8049208,10.7548245 81.2438208,11.3238566 C81.6827208,11.8928887 81.9015792,12.5482811 81.9015792,13.2924 C81.9015792,13.7171038 81.8471604,14.1264283 81.7395057,14.5239226 C81.6306679,14.921417 81.4260057,15.3366566 81.1207868,15.7708245 C80.8143849,16.2049925 80.4228057,16.5788264 79.9425,16.8946925 C79.4633774,17.2105585 78.8186321,17.4696396 78.0129962,17.6766679 C77.2073604,17.8836962 76.2834226,17.9854358 75.242366,17.9854358 C73.6606698,17.9854358 71.9251811,17.6009547 70.034717,16.8237113 L70.7480774,14.9036717 C71.8116113,15.2952509 72.6811302,15.5756264 73.359,15.7412491 C74.0345038,15.9068717 74.6993604,15.989683 75.3488377,15.989683 C77.8686679,15.989683 79.128583,15.1875962 79.128583,13.5869717 C79.128583,13.2367981 79.004366,12.9256642 78.7571151,12.6559358 C78.5098642,12.3885736 78.1786189,12.1673491 77.7633792,11.9993604 C77.3516887,11.8278226 76.8855792,11.6515528 76.3626849,11.472917 C75.8397906,11.2907321 75.3097981,11.1227434 74.7679755,10.9677679 C74.2249698,10.8127925 73.6926113,10.6093132 73.1709,10.3561472 C72.6515547,10.1029811 72.1830792,9.82378868 71.7702057,9.52093585 C71.3573321,9.21571698 71.0272698,8.81940566 70.7788358,8.33555094 C70.5304019,7.84933019 70.4061849,7.30277547 70.4061849,6.69352075 C70.4061849,6.32205283 70.4641528,5.94112075 70.5860038,5.55309057 C70.7043057,5.1662434 70.9267132,4.75810189 71.2496774,4.32866604 C71.5773736,3.90159623 71.980783,3.52421321 72.4670038,3.1977 C72.9520415,2.87355283 73.6003358,2.60382453 74.4095208,2.39443019 C75.2198887,2.18148679 76.1390943,2.07619811 77.1624057,2.07619811 Z" id="Stroke-5" stroke="#1A1919" stroke-width="1.1"></path>
                    <path d="M98.939417,4.27424717 C98.0308585,4.27424717 97.246517,4.52623019 96.5899415,5.02783019 C95.9357321,5.52588113 95.4566094,6.15051509 95.1584887,6.89345094 C94.8568189,7.63875283 94.7089415,8.43729057 94.7089415,9.29497925 L102.701417,9.29497925 C102.701417,5.94940189 101.447417,4.27424717 98.939417,4.27424717 Z M99.4800566,2.07619811 C100.224175,2.07619811 100.891398,2.16610755 101.485274,2.34710943 C102.081515,2.5269283 102.574834,2.7588 102.966413,3.03562642 C103.360358,3.31481887 103.696336,3.67682264 103.982626,4.12991887 C104.265368,4.57591698 104.480677,5.01008491 104.630921,5.4300566 C104.782347,5.84766226 104.8971,6.35281132 104.979911,6.93958868 C105.062723,7.52873208 105.117142,8.04097925 105.13607,8.47396415 C105.157364,8.90931509 105.165645,9.41801321 105.165645,10.0083396 L105.165645,11.2162019 L94.6462415,11.2162019 C94.6462415,11.7745868 94.7716415,12.3294226 95.0248075,12.8818925 C95.2791566,13.4355453 95.6352453,13.9418774 96.0942566,14.3997057 C96.555634,14.8599 97.1601566,15.233734 97.9101906,15.5235736 C98.6554925,15.8122302 99.4859717,15.9553755 100.39453,15.9553755 C101.467528,15.9553755 102.631619,15.7708245 103.88207,15.3993566 L104.329251,17.1348453 C102.667109,17.7038774 101.034543,17.9854358 99.4339189,17.9854358 C98.3076849,17.9854358 97.308034,17.8351925 96.4373321,17.5394377 C95.5630811,17.2365849 94.8615509,16.8473717 94.3280094,16.3694321 C93.7956509,15.8879434 93.361483,15.3129962 93.0207736,14.6398585 C92.6800642,13.9690868 92.4434604,13.3006811 92.3145113,12.6334585 C92.1855623,11.9697849 92.1228623,11.2635226 92.1228623,10.5182208 C92.1228623,9.37305849 92.2612755,8.32372075 92.5404679,7.3737566 C92.8184774,6.42379245 93.1958604,5.62643774 93.671434,4.97932642 C94.1470075,4.33694717 94.7006604,3.79157547 95.3359415,3.34439434 C95.9700396,2.90076226 96.6372623,2.57779811 97.3328774,2.37786792 C98.0332245,2.17675472 98.7477679,2.07619811 99.4800566,2.07619811 L99.4800566,2.07619811 Z" id="Fill-7" fill="#1A1919"></path>
                    <path d="M98.939417,4.27424717 C98.0308585,4.27424717 97.246517,4.52623019 96.5899415,5.02783019 C95.9357321,5.52588113 95.4566094,6.15051509 95.1584887,6.89345094 C94.8568189,7.63875283 94.7089415,8.43729057 94.7089415,9.29497925 L102.701417,9.29497925 C102.701417,5.94940189 101.447417,4.27424717 98.939417,4.27424717 Z M99.4800566,2.07619811 C100.224175,2.07619811 100.891398,2.16610755 101.485274,2.34710943 C102.081515,2.5269283 102.574834,2.7588 102.966413,3.03562642 C103.360358,3.31481887 103.696336,3.67682264 103.982626,4.12991887 C104.265368,4.57591698 104.480677,5.01008491 104.630921,5.4300566 C104.782347,5.84766226 104.8971,6.35281132 104.979911,6.93958868 C105.062723,7.52873208 105.117142,8.04097925 105.13607,8.47396415 C105.157364,8.90931509 105.165645,9.41801321 105.165645,10.0083396 L105.165645,11.2162019 L94.6462415,11.2162019 C94.6462415,11.7745868 94.7716415,12.3294226 95.0248075,12.8818925 C95.2791566,13.4355453 95.6352453,13.9418774 96.0942566,14.3997057 C96.555634,14.8599 97.1601566,15.233734 97.9101906,15.5235736 C98.6554925,15.8122302 99.4859717,15.9553755 100.39453,15.9553755 C101.467528,15.9553755 102.631619,15.7708245 103.88207,15.3993566 L104.329251,17.1348453 C102.667109,17.7038774 101.034543,17.9854358 99.4339189,17.9854358 C98.3076849,17.9854358 97.308034,17.8351925 96.4373321,17.5394377 C95.5630811,17.2365849 94.8615509,16.8473717 94.3280094,16.3694321 C93.7956509,15.8879434 93.361483,15.3129962 93.0207736,14.6398585 C92.6800642,13.9690868 92.4434604,13.3006811 92.3145113,12.6334585 C92.1855623,11.9697849 92.1228623,11.2635226 92.1228623,10.5182208 C92.1228623,9.37305849 92.2612755,8.32372075 92.5404679,7.3737566 C92.8184774,6.42379245 93.1958604,5.62643774 93.671434,4.97932642 C94.1470075,4.33694717 94.7006604,3.79157547 95.3359415,3.34439434 C95.9700396,2.90076226 96.6372623,2.57779811 97.3328774,2.37786792 C98.0332245,2.17675472 98.7477679,2.07619811 99.4800566,2.07619811 Z" id="Stroke-8" stroke="#1A1919" stroke-width="1.1"></path>
                    <path d="M116.313232,2.36958679 L118.096042,2.36958679 L118.654426,3.67090755 C120.627702,2.59790943 122.425891,2.05963585 124.047809,2.05963585 C124.883021,2.05963585 125.610577,2.19213396 126.229296,2.45594717 C126.849198,2.71857736 127.33187,3.04863962 127.671396,3.44613396 C128.012106,3.84481132 128.285383,4.34641132 128.48413,4.94738491 C128.686426,5.55309057 128.814192,6.12803774 128.87216,6.67814151 C128.930128,7.22469623 128.957338,7.84933019 128.957338,8.55086038 L128.957338,17.6766679 L126.416213,17.6766679 L126.416213,8.38050566 C126.416213,5.69741887 125.259221,4.35232642 122.945236,4.35232642 C121.746838,4.35232642 120.384,4.75100377 118.856723,5.54599245 L118.856723,17.6766679 L116.313232,17.6766679 L116.313232,2.36958679" id="Fill-10" fill="#1A1919"></path>
                    <path d="M116.313232,2.36958679 L118.096042,2.36958679 L118.654426,3.67090755 C120.627702,2.59790943 122.425891,2.05963585 124.047809,2.05963585 C124.883021,2.05963585 125.610577,2.19213396 126.229296,2.45594717 C126.849198,2.71857736 127.33187,3.04863962 127.671396,3.44613396 C128.012106,3.84481132 128.285383,4.34641132 128.48413,4.94738491 C128.686426,5.55309057 128.814192,6.12803774 128.87216,6.67814151 C128.930128,7.22469623 128.957338,7.84933019 128.957338,8.55086038 L128.957338,17.6766679 L126.416213,17.6766679 L126.416213,8.38050566 C126.416213,5.69741887 125.259221,4.35232642 122.945236,4.35232642 C121.746838,4.35232642 120.384,4.75100377 118.856723,5.54599245 L118.856723,17.6766679 L116.313232,17.6766679 L116.313232,2.36958679 Z" id="Stroke-11" stroke="#1A1919" stroke-width="1.1"></path>
                    <polygon id="Fill-13" fill="#1A1919" points="140.880985 17.6766679 143.422109 17.6766679 143.422109 2.36958679 140.880985 2.36958679"></polygon>
                    <polygon id="Stroke-14" stroke="#1A1919" stroke-width="1.1" points="140.880985 17.6766679 143.422109 17.6766679 143.422109 2.36958679 140.880985 2.36958679"></polygon>
                    <polyline id="Fill-16" fill="#1A1919" points="153.562947 2.36958679 156.508664 2.36958679 160.829049 8.44202264 164.998008 2.36958679 167.708304 2.36958679 162.068853 10.1775113 167.416098 17.6766679 164.470381 17.6766679 160.364123 11.9295623 156.46016 17.6766679 153.748681 17.6766679 159.110123 10.1633151 153.562947 2.36958679"></polyline>
                    <polygon id="Stroke-17" stroke="#1A1919" stroke-width="1.1" points="153.562947 2.36958679 156.508664 2.36958679 160.829049 8.44202264 164.998008 2.36958679 167.708304 2.36958679 162.068853 10.1775113 167.416098 17.6766679 164.470381 17.6766679 160.364123 11.9295623 156.46016 17.6766679 153.748681 17.6766679 159.110123 10.1633151"></polygon>
                    <polyline id="Fill-19" fill="#1A1919" points="75.4493943 28.7591887 75.4493943 29.5044906 73.5151585 29.5044906 73.5151585 34.9073377 72.6539208 34.9073377 72.6539208 29.5044906 70.7196849 29.5044906 70.7196849 28.7591887 75.4493943 28.7591887"></polyline>
                    <polyline id="Fill-20" fill="#1A1919" points="82.4410358 28.7591887 83.3010906 28.7591887 83.3010906 34.9073377 82.4410358 34.9073377 82.4410358 32.0692755 79.4326189 32.0692755 79.4326189 34.9073377 78.5725642 34.9073377 78.5725642 28.7591887 79.4326189 28.7591887 79.4326189 31.3239736 82.4410358 31.3239736 82.4410358 28.7591887"></polyline>
                    <polyline id="Fill-21" fill="#1A1919" points="87.0453453 34.9073377 87.0453453 28.7591887 90.7990642 28.7591887 90.7990642 29.4950264 87.906583 29.4950264 87.906583 31.3239736 90.4796491 31.3239736 90.4796491 32.042066 87.906583 32.042066 87.906583 34.1715 91.0202887 34.1715 91.0202887 34.9073377 87.0453453 34.9073377"></polyline>
                    <path d="M101.89933,32.6276604 C101.710047,32.1130472 101.521947,31.6149962 101.33503,31.1335075 C101.148113,30.6496528 100.954098,30.1882755 100.752985,29.7446434 C100.54714,30.1882755 100.350758,30.6496528 100.163842,31.1335075 C99.9769245,31.6149962 99.7923736,32.1130472 99.6090057,32.6276604 L101.89933,32.6276604 Z M102.704966,34.9073377 C102.604409,34.6423415 102.510951,34.3808943 102.421042,34.1229962 C102.333498,33.8650981 102.241223,33.6036509 102.146581,33.3374717 L99.3605717,33.3374717 L98.8021868,34.9073377 L97.9054585,34.9073377 C98.1420623,34.2578604 98.3632868,33.6557038 98.5714981,33.1020509 C98.7773434,32.5495811 98.9808226,32.0255038 99.1795698,31.5286358 C99.377134,31.0317679 99.5746981,30.5550113 99.7687132,30.1042811 C99.9639113,29.6511849 100.168574,29.2040038 100.381517,28.7591887 L101.171774,28.7591887 C101.383534,29.2040038 101.587013,29.6511849 101.783394,30.1042811 C101.977409,30.5550113 102.173791,31.0317679 102.372538,31.5286358 C102.571285,32.0255038 102.773581,32.5495811 102.980609,33.1020509 C103.188821,33.6557038 103.410045,34.2578604 103.645466,34.9073377 L102.704966,34.9073377 L102.704966,34.9073377 Z" id="Fill-22" fill="#1A1919"></path>
                    <path d="M108.402385,34.2069906 C109.218668,34.2069906 109.827923,33.9987792 110.230149,33.5823566 C110.632375,33.1647509 110.834672,32.5803396 110.834672,31.8291226 C110.834672,31.0779057 110.632375,30.4934943 110.230149,30.0770717 C109.827923,29.6606491 109.218668,29.4512547 108.402385,29.4512547 C108.159866,29.4512547 107.971766,29.4548038 107.839268,29.4607189 C107.705587,29.4654509 107.613311,29.471366 107.560075,29.4784642 L107.560075,34.1797811 C107.613311,34.1868792 107.705587,34.1927943 107.839268,34.1987094 C107.971766,34.2046245 108.159866,34.2069906 108.402385,34.2069906 Z M111.746779,31.8291226 C111.746779,32.3626642 111.663968,32.8240415 111.499528,33.2168038 C111.332723,33.6107491 111.099668,33.9360792 110.796815,34.1939774 C110.496328,34.4506925 110.135508,34.6447075 109.715536,34.7712906 C109.295564,34.8978736 108.833004,34.9605736 108.331404,34.9605736 C108.081787,34.9605736 107.809692,34.9511094 107.510389,34.9309981 C107.211085,34.9097038 106.940174,34.8706642 106.697655,34.8103302 L106.697655,28.8479151 C106.940174,28.7887642 107.211085,28.7497245 107.510389,28.7284302 C107.809692,28.7071358 108.081787,28.6976717 108.331404,28.6976717 C108.833004,28.6976717 109.295564,28.7603717 109.715536,28.8881377 C110.135508,29.0159038 110.496328,29.2075528 110.796815,29.4654509 C111.099668,29.720983 111.332723,30.0474962 111.499528,30.4402585 C111.663968,30.8342038 111.746779,31.2967642 111.746779,31.8291226 L111.746779,31.8291226 Z" id="Fill-23" fill="#1A1919"></path>
                    <path d="M120.061036,28.7591887 C119.836262,29.4098491 119.620953,30.0120057 119.417474,30.5644755 C119.215177,31.1181283 119.014064,31.6433887 118.820049,32.1402566 C118.623668,32.6371245 118.430836,33.1115151 118.236821,33.5634283 C118.045172,34.0165245 117.848791,34.4637057 117.647677,34.9073377 L116.840858,34.9073377 C116.639745,34.4637057 116.442181,34.0165245 116.250532,33.5634283 C116.058883,33.1115151 115.862502,32.6371245 115.664938,32.1402566 C115.467374,31.6433887 115.263894,31.1181283 115.058049,30.5644755 C114.849838,30.0120057 114.636894,29.4098491 114.418036,28.7591887 L115.368,28.7591887 C115.686232,29.6937736 116.000915,30.5928679 116.307317,31.4564717 C116.614902,32.3212585 116.931951,33.1304434 117.257281,33.8875755 C117.583794,33.1363585 117.89966,32.3271736 118.207245,31.4612038 C118.51483,30.595234 118.824781,29.6937736 119.138281,28.7591887 L120.061036,28.7591887" id="Fill-24" fill="#1A1919"></path>
                    <path d="M125.881489,32.6276604 C125.692206,32.1130472 125.504106,31.6149962 125.319555,31.1335075 C125.132638,30.6496528 124.93744,30.1882755 124.737509,29.7446434 C124.530481,30.1882755 124.3341,30.6496528 124.148366,31.1335075 C123.960266,31.6149962 123.775715,32.1130472 123.59353,32.6276604 L125.881489,32.6276604 Z M126.689491,34.9073377 C126.587751,34.6423415 126.494292,34.3808943 126.405566,34.1229962 C126.318023,33.8650981 126.224564,33.6036509 126.129923,33.3374717 L123.343913,33.3374717 L122.784345,34.9073377 L121.8888,34.9073377 C122.126587,34.2578604 122.347811,33.6557038 122.55484,33.1020509 C122.761868,32.5495811 122.965347,32.0255038 123.162911,31.5286358 C123.360475,31.0317679 123.556857,30.5550113 123.753238,30.1042811 C123.947253,29.6511849 124.151915,29.2040038 124.364858,28.7591887 L125.153932,28.7591887 C125.368058,29.2040038 125.571538,29.6511849 125.766736,30.1042811 C125.961934,30.5550113 126.158315,31.0317679 126.357062,31.5286358 C126.555809,32.0255038 126.756923,32.5495811 126.963951,33.1020509 C127.170979,33.6557038 127.393387,34.2578604 127.629991,34.9073377 L126.689491,34.9073377 L126.689491,34.9073377 Z" id="Fill-25" fill="#1A1919"></path>
                    <path d="M134.896092,34.9073377 C134.767143,34.6896623 134.6169,34.4435943 134.448911,34.1715 C134.27974,33.8994057 134.098738,33.6166642 133.90354,33.3232755 C133.708342,33.0310698 133.506045,32.7341321 133.295468,32.4324623 C133.084891,32.1307925 132.876679,31.8397698 132.669651,31.5582113 C132.462623,31.2778358 132.261509,31.0128396 132.066311,30.7644057 C131.871113,30.5159717 131.690111,30.2971132 131.525672,30.1066472 L131.525672,34.9073377 L130.682179,34.9073377 L130.682179,28.7591887 L131.365964,28.7591887 C131.642791,29.0549434 131.939728,29.4003849 132.256777,29.7931472 C132.573826,30.1859094 132.886143,30.5916849 133.19846,31.0081075 C133.508411,31.4257132 133.8018,31.8350377 134.07626,32.2372642 C134.351904,32.6394906 134.582592,32.9979453 134.771875,33.3114453 L134.771875,28.7591887 L135.615368,28.7591887 L135.615368,34.9073377 L134.896092,34.9073377" id="Fill-26" fill="#1A1919"></path>
                    <path d="M142.00367,35.0410189 C141.571868,35.0410189 141.179106,34.9700377 140.823017,34.8292585 C140.468111,34.6861132 140.164075,34.4802679 139.909726,34.2069906 C139.655377,33.9360792 139.457813,33.5989189 139.3194,33.2002415 C139.180987,32.8015642 139.111189,32.3437358 139.111189,31.8291226 C139.111189,31.3145094 139.189268,30.8578642 139.346609,30.4580038 C139.502768,30.0593264 139.714528,29.7233491 139.979525,29.4512547 C140.246887,29.1791604 140.558021,28.9721321 140.911743,28.8301698 C141.266649,28.6882075 141.646398,28.6172264 142.047442,28.6172264 C142.301791,28.6172264 142.531296,28.6349717 142.734775,28.6704623 C142.939438,28.7059528 143.118074,28.7473585 143.268317,28.7946792 C143.41856,28.842 143.541594,28.8893208 143.635053,28.9366415 C143.729694,28.9839623 143.795943,29.0194528 143.831434,29.0431132 L143.581817,29.7541075 C143.528581,29.7162509 143.452868,29.6795774 143.352311,29.6381717 C143.251755,29.596766 143.138185,29.5553604 143.011602,29.5139547 C142.882653,29.471366 142.74424,29.4382415 142.592813,29.4122151 C142.44257,29.3838226 142.28996,29.3719925 142.137351,29.3719925 C141.810838,29.3719925 141.518632,29.4275943 141.257185,29.5399811 C140.998104,29.6523679 140.775696,29.8156245 140.592328,30.0285679 C140.410143,30.2415113 140.268181,30.5005925 140.171174,30.8046283 C140.072983,31.1098472 140.024479,31.4505566 140.024479,31.8291226 C140.024479,32.1958585 140.068251,32.5306528 140.153428,32.8311396 C140.238606,33.1339925 140.367555,33.3930736 140.539092,33.608383 C140.71063,33.8248755 140.924757,33.9916811 141.182655,34.109983 C141.440553,34.2282849 141.74104,34.2874358 142.082932,34.2874358 C142.480426,34.2874358 142.808123,34.2460302 143.068387,34.1632189 C143.327468,34.0792245 143.523849,34.0058774 143.653981,33.9408113 L143.875206,34.6506226 C143.8338,34.6813811 143.760453,34.7180547 143.653981,34.7618264 C143.547509,34.8055981 143.413828,34.8493698 143.254121,34.8907755 C143.094413,34.9321811 142.908679,34.9676717 142.694553,34.9972472 C142.482792,35.0268226 142.250921,35.0410189 142.00367,35.0410189" id="Fill-27" fill="#1A1919"></path>
                    <polyline id="Fill-28" fill="#1A1919" points="147.077638 34.9073377 147.077638 28.7591887 150.831357 28.7591887 150.831357 29.4950264 147.940058 29.4950264 147.940058 31.3239736 150.511942 31.3239736 150.511942 32.042066 147.940058 32.042066 147.940058 34.1715 151.053764 34.1715 151.053764 34.9073377 147.077638 34.9073377"></polyline>
                    <path d="M156.066215,34.2069906 C156.882498,34.2069906 157.491753,33.9987792 157.893979,33.5823566 C158.296206,33.1647509 158.498502,32.5803396 158.498502,31.8291226 C158.498502,31.0779057 158.296206,30.4934943 157.893979,30.0770717 C157.491753,29.6606491 156.882498,29.4512547 156.066215,29.4512547 C155.823696,29.4512547 155.636779,29.4548038 155.503098,29.4607189 C155.3706,29.4654509 155.277142,29.471366 155.223906,29.4784642 L155.223906,34.1797811 C155.277142,34.1868792 155.3706,34.1927943 155.503098,34.1987094 C155.636779,34.2046245 155.823696,34.2069906 156.066215,34.2069906 Z M159.411792,31.8291226 C159.411792,32.3626642 159.328981,32.8240415 159.163358,33.2168038 C158.998919,33.6107491 158.764681,33.9360792 158.461828,34.1939774 C158.160158,34.4506925 157.799338,34.6447075 157.379366,34.7712906 C156.960577,34.8978736 156.498017,34.9605736 155.995234,34.9605736 C155.7468,34.9605736 155.473523,34.9511094 155.174219,34.9309981 C154.876098,34.9097038 154.60637,34.8706642 154.363851,34.8103302 L154.363851,28.8479151 C154.60637,28.7887642 154.876098,28.7497245 155.174219,28.7284302 C155.473523,28.7071358 155.7468,28.6976717 155.995234,28.6976717 C156.498017,28.6976717 156.960577,28.7603717 157.379366,28.8881377 C157.799338,29.0159038 158.160158,29.2075528 158.461828,29.4654509 C158.764681,29.720983 158.998919,30.0474962 159.163358,30.4402585 C159.328981,30.8342038 159.411792,31.2967642 159.411792,31.8291226 L159.411792,31.8291226 Z" id="Fill-29" fill="#1A1919"></path>
                    <path d="M73.984817,46.8712075 C73.5530151,46.8712075 73.1602528,46.8002264 72.8053472,46.6594472 C72.4504415,46.5163019 72.1452226,46.3104566 71.8908736,46.0371792 C71.6365245,45.7650849 71.4401434,45.4302906 71.3017302,45.0304302 C71.162134,44.6305698 71.0923358,44.1739245 71.0923358,43.6604943 C71.0923358,43.1446981 71.1704151,42.6868698 71.3277566,42.2881925 C71.4839151,41.8906981 71.6956755,41.5535377 71.9618547,41.2826264 C72.228034,41.0093491 72.5391679,40.8023208 72.8940736,40.6603585 C73.2489792,40.5183962 73.6275453,40.4485981 74.0297717,40.4485981 C74.2841208,40.4485981 74.5124434,40.4639774 74.7171057,40.501834 C74.9217679,40.5361415 75.0980377,40.5775472 75.2494642,40.6248679 C75.3997075,40.6721887 75.5227415,40.7195094 75.617383,40.7668302 C75.7120245,40.8141509 75.7770906,40.8508245 75.8125811,40.8733019 L75.5641472,41.5831132 C75.5109113,41.5476226 75.4340151,41.508583 75.3334585,41.4671774 C75.2329019,41.4269547 75.1193321,41.3855491 74.9927491,41.3441434 C74.864983,41.3027377 74.7265698,41.2684302 74.5751434,41.2412208 C74.4249,41.2151943 74.2722906,41.2009981 74.1184981,41.2009981 C73.7919849,41.2009981 73.4997792,41.257783 73.2395151,41.3701698 C72.9792509,41.4837396 72.7568434,41.6446302 72.5746585,41.8575736 C72.3912906,42.0717 72.2505113,42.3307811 72.1523208,42.633634 C72.0553132,42.9388528 72.0068094,43.2807453 72.0068094,43.6604943 C72.0068094,44.0260472 72.0493981,44.3596585 72.1357585,44.6625113 C72.2209358,44.9629981 72.3498849,45.2220792 72.5214226,45.4385717 C72.6929604,45.6538811 72.9070868,45.8218698 73.1638019,45.9401717 C73.4217,46.0584736 73.7210038,46.1176245 74.0652623,46.1176245 C74.4615736,46.1176245 74.7892698,46.0762189 75.049534,45.9934075 C75.3097981,45.9105962 75.5049962,45.836066 75.6351283,45.772183 L75.8575358,46.4808113 C75.8161302,46.5115698 75.7416,46.5482434 75.6351283,46.5920151 C75.5286566,46.6357868 75.3961585,46.6795585 75.2364509,46.7209642 C75.0767434,46.7623698 74.8898264,46.7978604 74.676883,46.8274358 C74.4639396,46.8570113 74.2332509,46.8712075 73.984817,46.8712075" id="Fill-30" fill="#1A1919"></path>
                    <path d="M79.5390906,43.6604943 C79.5390906,44.0319623 79.5864113,44.3714887 79.6810528,44.6755245 C79.7756943,44.9795604 79.9105585,45.2386415 80.0844623,45.4515849 C80.2595491,45.6645283 80.4724925,45.8301509 80.7232925,45.9437208 C80.9752755,46.0596566 81.258017,46.1176245 81.571517,46.1176245 C81.885017,46.1176245 82.1653925,46.0596566 82.4138264,45.9437208 C82.6622604,45.8301509 82.8740208,45.6645283 83.0479245,45.4515849 C83.2230113,45.2386415 83.3578755,44.9795604 83.452517,44.6755245 C83.5471585,44.3714887 83.5944792,44.0319623 83.5944792,43.6604943 C83.5944792,43.2866604 83.5471585,42.948317 83.452517,42.6430981 C83.3578755,42.3378792 83.2230113,42.0799811 83.0479245,41.8670377 C82.8740208,41.6540943 82.6622604,41.4908377 82.4138264,41.3749019 C82.1653925,41.258966 81.885017,41.2009981 81.571517,41.2009981 C81.258017,41.2009981 80.9752755,41.258966 80.7232925,41.3749019 C80.4724925,41.4908377 80.2595491,41.6540943 80.0844623,41.8670377 C79.9105585,42.0799811 79.7756943,42.3378792 79.6810528,42.6430981 C79.5864113,42.948317 79.5390906,43.2866604 79.5390906,43.6604943 Z M78.6340811,43.6604943 C78.6340811,43.1328679 78.7121604,42.6691245 78.8695019,42.2668981 C79.0256604,41.8646717 79.2386038,41.5286943 79.5083321,41.258966 C79.7780604,40.9904208 80.0903774,40.7881245 80.4488321,40.6520774 C80.8061038,40.5148472 81.1870358,40.4485981 81.5892623,40.4485981 C81.9855736,40.4485981 82.3594075,40.5148472 82.7119472,40.6520774 C83.0633038,40.7881245 83.3720717,40.9904208 83.6382509,41.258966 C83.9044302,41.5286943 84.1161906,41.8646717 84.2723491,42.2668981 C84.4296906,42.6691245 84.5077698,43.1328679 84.5077698,43.6604943 C84.5077698,44.1869377 84.4296906,44.6506811 84.2723491,45.0529075 C84.1161906,45.455134 83.9044302,45.7899283 83.6382509,46.0596566 C83.3720717,46.3282019 83.0633038,46.5316811 82.7119472,46.6677283 C82.3594075,46.8037755 81.9855736,46.8712075 81.5892623,46.8712075 C81.1870358,46.8712075 80.8061038,46.8037755 80.4488321,46.6677283 C80.0903774,46.5316811 79.7780604,46.3282019 79.5083321,46.0596566 C79.2386038,45.7899283 79.0256604,45.455134 78.8695019,45.0529075 C78.7121604,44.6506811 78.6340811,44.1869377 78.6340811,43.6604943 L78.6340811,43.6604943 Z" id="Fill-31" fill="#1A1919"></path>
                    <path d="M90.7635736,45.8857528 C90.7032396,45.7437906 90.6251604,45.5639717 90.5281528,45.3439302 C90.4311453,45.1274377 90.3258566,44.8896509 90.2134698,44.6353019 C90.101083,44.3809528 89.9815981,44.1195057 89.8538321,43.8497774 C89.726066,43.5812321 89.6065811,43.326883 89.4941943,43.0867302 C89.3818075,42.8477604 89.2765189,42.633634 89.1795113,42.4443509 C89.0813208,42.2550679 89.0032415,42.1095566 88.9440906,42.009 C88.8790245,42.7081642 88.8257887,43.4641132 88.784383,44.2768472 C88.7429774,45.0907642 88.7074868,45.9105962 88.6779113,46.7375264 L87.8356019,46.7375264 C87.8592623,46.2063509 87.8852887,45.6692604 87.9148642,45.1274377 C87.9444396,44.5867981 87.9787472,44.0556226 88.0177868,43.5303623 C88.0556434,43.0074679 88.0970491,42.4975868 88.1408208,42.0007189 C88.1857755,41.5038509 88.2342792,41.0330094 88.2875151,40.5893774 L89.0422811,40.5893774 C89.2019887,40.8508245 89.3723434,41.1572264 89.5568943,41.5121321 C89.7390792,41.8670377 89.9236302,42.2385057 90.1069981,42.6265358 C90.290366,43.013383 90.4678189,43.4014132 90.6393566,43.7882604 C90.8108943,44.1751075 90.9670528,44.5288302 91.1090151,44.8482453 C91.2509774,44.5288302 91.4083189,44.1751075 91.5798566,43.7882604 C91.7513943,43.4014132 91.9288472,43.013383 92.1122151,42.6265358 C92.295583,42.2385057 92.4777679,41.8670377 92.6623189,41.5121321 C92.8445038,41.1572264 93.0172245,40.8508245 93.1769321,40.5893774 L93.9305151,40.5893774 C94.1316283,42.572117 94.2830547,44.6211057 94.3836113,46.7375264 L93.5401189,46.7375264 C93.5105434,45.9105962 93.4750528,45.0907642 93.4336472,44.2768472 C93.3922415,43.4641132 93.3390057,42.7081642 93.2739396,42.009 C93.2147887,42.1095566 93.1367094,42.2550679 93.0397019,42.4443509 C92.9415113,42.633634 92.8362226,42.8477604 92.7238358,43.0867302 C92.6114491,43.326883 92.4919642,43.5812321 92.3641981,43.8497774 C92.2376151,44.1195057 92.1181302,44.3809528 92.0045604,44.6353019 C91.8933566,44.8896509 91.7880679,45.1274377 91.6898774,45.3439302 C91.5928698,45.5639717 91.5136075,45.7437906 91.4556396,45.8857528 L90.7635736,45.8857528" id="Fill-32" fill="#1A1919"></path>
                    <path d="M99.6527774,41.2826264 C99.2860415,41.2826264 99.005666,41.2909075 98.8092849,41.3074698 L98.8092849,43.7220113 L99.4575792,43.7220113 C99.753334,43.7220113 100.020696,43.7019 100.256117,43.6652264 C100.492721,43.6250038 100.692651,43.5611208 100.854725,43.4676623 C101.019164,43.3765698 101.143381,43.2511698 101.232108,43.0914623 C101.320834,42.9317547 101.365789,42.7282755 101.365789,42.4798415 C101.365789,42.2432377 101.319651,42.0468566 101.227375,41.8930642 C101.136283,41.7404547 101.012066,41.6174208 100.854725,41.5251453 C100.698566,41.4340528 100.517564,41.3701698 100.309353,41.3358623 C100.102325,41.2991887 99.8846491,41.2826264 99.6527774,41.2826264 Z M99.5817962,40.5266774 C100.4454,40.5266774 101.110257,40.691117 101.574,41.0188132 C102.037743,41.3476925 102.270798,41.8374623 102.270798,42.4881226 C102.270798,42.8430283 102.206915,43.1470642 102.079149,43.3978642 C101.952566,43.6486642 101.769198,43.8545094 101.529045,44.0106679 C101.290075,44.1656434 100.999053,44.2803962 100.655977,44.3513774 C100.312902,44.4223585 99.9260547,44.456666 99.4942528,44.456666 L98.8092849,44.456666 L98.8092849,46.7375264 L97.9504132,46.7375264 L97.9504132,40.6781038 C98.1929321,40.6189528 98.4626604,40.5799132 98.7607811,40.5598019 C99.0589019,40.5385075 99.3345453,40.5266774 99.5817962,40.5266774 L99.5817962,40.5266774 Z" id="Fill-33" fill="#1A1919"></path>
                    <path d="M107.851098,46.8712075 C107.448872,46.8712075 107.099881,46.8096906 106.804126,46.6842906 C106.508372,46.5612566 106.265853,46.3909019 106.07657,46.1755925 C105.887287,45.9591 105.747691,45.7023849 105.656598,45.4066302 C105.56314,45.1108755 105.517002,44.7926434 105.517002,44.4495679 L105.517002,40.5893774 L106.379423,40.5893774 L106.379423,44.3513774 C106.379423,44.9665472 106.51547,45.4137283 106.787564,45.6905547 C107.058475,45.9697472 107.414564,46.1081604 107.851098,46.1081604 C108.07114,46.1081604 108.269887,46.0750358 108.450889,46.0064208 C108.630708,45.9378057 108.786866,45.8337 108.915815,45.6905547 C109.045947,45.5497755 109.147687,45.3675906 109.217485,45.145183 C109.288466,44.9239585 109.32514,44.6589623 109.32514,44.3513774 L109.32514,40.5893774 L110.185194,40.5893774 L110.185194,44.4495679 C110.185194,44.7926434 110.139057,45.1108755 110.046781,45.4066302 C109.955689,45.7023849 109.813726,45.9591 109.620894,46.1755925 C109.429245,46.3909019 109.186726,46.5612566 108.894521,46.6842906 C108.602315,46.8096906 108.253325,46.8712075 107.851098,46.8712075" id="Fill-34" fill="#1A1919"></path>
                    <polyline id="Fill-35" fill="#1A1919" points="117.993119 40.5893774 117.993119 41.3358623 116.058883 41.3358623 116.058883 46.7375264 115.198828 46.7375264 115.198828 41.3358623 113.264592 41.3358623 113.264592 40.5893774 117.993119 40.5893774"></polyline>
                    <polygon id="Fill-36" fill="#1A1919" points="121.116289 46.7375264 121.977526 46.7375264 121.977526 40.5893774 121.116289 40.5893774"></polygon>
                    <path d="M129.935694,46.7375264 C129.806745,46.5198509 129.656502,46.273783 129.48733,46.0016887 C129.319342,45.7307774 129.137157,45.4468528 128.941958,45.1546472 C128.74676,44.8612585 128.544464,44.5643208 128.33507,44.2626509 C128.124492,43.9609811 127.916281,43.6687755 127.70807,43.389583 C127.501042,43.1080245 127.301111,42.8430283 127.105913,42.5945943 C126.909532,42.3461604 126.729713,42.1284849 126.564091,41.9392019 L126.564091,46.7375264 L125.721781,46.7375264 L125.721781,40.5893774 L126.405566,40.5893774 C126.682392,40.8851321 126.97933,41.2293906 127.296379,41.6233358 C127.612245,42.0172811 127.925745,42.4218736 128.238062,42.8382962 C128.54683,43.2559019 128.840219,43.6652264 129.115862,44.0674528 C129.390323,44.4696792 129.621011,44.828134 129.811477,45.141634 L129.811477,40.5893774 L130.65497,40.5893774 L130.65497,46.7375264 L129.935694,46.7375264" id="Fill-37" fill="#1A1919"></path>
                    <path d="M138.15176,43.7137302 L139.011815,43.7137302 L139.011815,46.587283 C138.940834,46.6109434 138.839094,46.6381528 138.706596,46.6677283 C138.572915,46.6961208 138.419123,46.7256962 138.245219,46.7564547 C138.070132,46.7860302 137.879666,46.8108736 137.672638,46.8309849 C137.465609,46.8522792 137.256215,46.8629264 137.043272,46.8629264 C136.61147,46.8629264 136.218708,46.7907623 135.862619,46.649983 C135.507713,46.5080208 135.202494,46.3009925 134.948145,46.0288981 C134.694979,45.7556208 134.497415,45.4231925 134.357819,45.0256981 C134.219406,44.6305698 134.150791,44.1739245 134.150791,43.6604943 C134.150791,43.1446981 134.22887,42.6868698 134.386211,42.2881925 C134.54237,41.8906981 134.752947,41.5535377 135.019126,41.2826264 C135.286489,41.0093491 135.597623,40.8023208 135.956077,40.6603585 C136.313349,40.5183962 136.696647,40.4485981 137.105972,40.4485981 C137.382798,40.4485981 137.630049,40.4639774 137.845358,40.501834 C138.061851,40.5361415 138.246402,40.5775472 138.399011,40.6248679 C138.553987,40.6721887 138.679387,40.7195094 138.777577,40.7668302 C138.875768,40.8141509 138.940834,40.8508245 138.977508,40.8733019 L138.701864,41.5925774 C138.530326,41.4801906 138.302004,41.3867321 138.018079,41.3122019 C137.734155,41.2388547 137.445498,41.2009981 137.149743,41.2009981 C136.83506,41.2009981 136.551136,41.257783 136.292055,41.3701698 C136.03534,41.4837396 135.816481,41.6446302 135.635479,41.8575736 C135.45566,42.0717 135.314881,42.3307811 135.215508,42.633634 C135.113768,42.9388528 135.064081,43.2807453 135.064081,43.6604943 C135.064081,44.0260472 135.10667,44.3596585 135.191847,44.6625113 C135.278208,44.9629981 135.40834,45.2220792 135.583426,45.4385717 C135.75733,45.6538811 135.973823,45.8218698 136.230538,45.9401717 C136.488436,46.0584736 136.791289,46.1176245 137.140279,46.1176245 C137.388713,46.1176245 137.600474,46.1046113 137.774377,46.0774019 C137.949464,46.0513755 138.074864,46.0265321 138.15176,46.0016887 L138.15176,43.7137302" id="Fill-38" fill="#1A1919"></path>
                    <path d="M148.274853,46.1259057 C149.173947,46.1259057 149.624677,45.8183208 149.624677,45.2031509 C149.624677,45.0138679 149.584455,44.8517943 149.504009,44.7204792 C149.424747,44.5867981 149.317092,44.4708623 149.181045,44.3738547 C149.043815,44.2768472 148.890023,44.1916698 148.713753,44.1206887 C148.541032,44.0508906 148.355298,43.9787264 148.158917,43.9077453 C147.935326,43.8308491 147.722383,43.7433057 147.52127,43.6462981 C147.320157,43.5492906 147.14507,43.4333547 146.997192,43.2996736 C146.849315,43.1683585 146.733379,43.0086509 146.647019,42.826466 C146.561842,42.6419151 146.519253,42.4206906 146.519253,42.1604264 C146.519253,41.6221528 146.701438,41.2009981 147.069357,40.9005113 C147.436092,40.5988415 147.941242,40.4485981 148.58717,40.4485981 C148.958638,40.4485981 149.296981,40.4876377 149.601017,40.5669 C149.906236,40.6473453 150.129826,40.7348887 150.271789,40.8295302 L149.996145,41.5298774 C149.873111,41.4529811 149.687377,41.3772679 149.441309,41.3027377 C149.196425,41.2293906 148.911317,41.192717 148.58717,41.192717 C148.420364,41.192717 148.266572,41.2104623 148.124609,41.2459528 C147.982647,41.2826264 147.85843,41.3358623 147.753142,41.4056604 C147.645487,41.4766415 147.561492,41.5665509 147.498792,41.6765717 C147.436092,41.7865925 147.406517,41.9143585 147.406517,42.0622358 C147.406517,42.2278585 147.438458,42.3674547 147.503525,42.4798415 C147.567408,42.5922283 147.660866,42.6904189 147.777985,42.7779623 C147.896287,42.8631396 148.0347,42.9412189 148.192042,43.0122 C148.3482,43.0819981 148.520921,43.1541623 148.710204,43.2239604 C148.976383,43.3316151 149.220085,43.4380868 149.441309,43.5445585 C149.663717,43.6510302 149.855366,43.7776132 150.019806,43.9254906 C150.180696,44.0733679 150.307279,44.2496377 150.396006,44.4543 C150.484732,44.6577792 150.528504,44.9050302 150.528504,45.1936868 C150.528504,45.7331434 150.332123,46.146017 149.938177,46.4370396 C149.545415,46.7256962 148.991762,46.8712075 148.274853,46.8712075 C148.032334,46.8712075 147.809926,46.8558283 147.605264,46.8227038 C147.401785,46.7907623 147.218417,46.7517226 147.059892,46.7079509 C146.900185,46.6629962 146.762955,46.6156755 146.647019,46.5648057 C146.532266,46.5163019 146.441174,46.4725302 146.377291,46.4370396 L146.634006,45.7272283 C146.771236,45.8041245 146.975898,45.8893019 147.256274,45.9839434 C147.5331,46.0797679 147.872626,46.1259057 148.274853,46.1259057" id="Fill-39" fill="#1A1919"></path>
                    <path d="M155.248749,46.7375264 L155.248749,44.2721151 C154.841791,43.6392 154.456126,43.0157491 154.095306,42.3993962 C153.734485,41.7842264 153.394958,41.1808868 153.075543,40.5893774 L154.085842,40.5893774 C154.311798,41.0744151 154.562598,41.5665509 154.841791,42.0669679 C155.118617,42.5673849 155.404908,43.0476906 155.700662,43.5090679 C155.991685,43.0476906 156.275609,42.5673849 156.553619,42.0669679 C156.830445,41.5665509 157.084794,41.0744151 157.316666,40.5893774 L158.274911,40.5893774 C157.955496,41.1808868 157.614787,41.7830434 157.253966,42.3946642 C156.893145,43.0074679 156.512213,43.6273698 156.109987,44.2543698 L156.109987,46.7375264 L155.248749,46.7375264" id="Fill-40" fill="#1A1919"></path>
                    <path d="M162.737258,46.1259057 C163.63517,46.1259057 164.0859,45.8183208 164.0859,45.2031509 C164.0859,45.0138679 164.04686,44.8517943 163.966415,44.7204792 C163.88597,44.5867981 163.779498,44.4708623 163.642268,44.3738547 C163.506221,44.2768472 163.351245,44.1916698 163.176158,44.1206887 C163.002255,44.0508906 162.817704,43.9787264 162.621323,43.9077453 C162.397732,43.8308491 162.184789,43.7433057 161.983675,43.6462981 C161.782562,43.5492906 161.607475,43.4333547 161.459598,43.2996736 C161.311721,43.1683585 161.195785,43.0086509 161.109425,42.826466 C161.023064,42.6419151 160.980475,42.4206906 160.980475,42.1604264 C160.980475,41.6221528 161.163843,41.2009981 161.530579,40.9005113 C161.898498,40.5988415 162.402464,40.4485981 163.048392,40.4485981 C163.421043,40.4485981 163.759387,40.4876377 164.063423,40.5669 C164.368642,40.6473453 164.592232,40.7348887 164.733011,40.8295302 L164.458551,41.5298774 C164.334334,41.4529811 164.149783,41.3772679 163.903715,41.3027377 C163.65883,41.2293906 163.373723,41.192717 163.048392,41.192717 C162.88277,41.192717 162.728977,41.2104623 162.587015,41.2459528 C162.445053,41.2826264 162.320836,41.3358623 162.214364,41.4056604 C162.106709,41.4766415 162.022715,41.5665509 161.960015,41.6765717 C161.898498,41.7865925 161.86774,41.9143585 161.86774,42.0622358 C161.86774,42.2278585 161.900864,42.3674547 161.964747,42.4798415 C162.029813,42.5922283 162.122089,42.6904189 162.240391,42.7779623 C162.357509,42.8631396 162.497106,42.9412189 162.653264,43.0122 C162.809423,43.0819981 162.983326,43.1541623 163.172609,43.2239604 C163.437606,43.3316151 163.681308,43.4380868 163.903715,43.5445585 C164.12494,43.6510302 164.317772,43.7776132 164.481028,43.9254906 C164.643102,44.0733679 164.768502,44.2496377 164.858411,44.4543 C164.947138,44.6577792 164.990909,44.9050302 164.990909,45.1936868 C164.990909,45.7331434 164.794528,46.146017 164.400583,46.4370396 C164.007821,46.7256962 163.452985,46.8712075 162.737258,46.8712075 C162.49474,46.8712075 162.272332,46.8558283 162.066487,46.8227038 C161.863008,46.7907623 161.680823,46.7517226 161.521115,46.7079509 C161.362591,46.6629962 161.224177,46.6156755 161.109425,46.5648057 C160.994672,46.5163019 160.903579,46.4725302 160.838513,46.4370396 L161.096411,45.7272283 C161.232458,45.8041245 161.438304,45.8893019 161.717496,45.9839434 C161.995506,46.0797679 162.335032,46.1259057 162.737258,46.1259057" id="Fill-41" fill="#1A1919"></path>
                    <polyline id="Fill-42" fill="#1A1919" points="172.356385 40.5893774 172.356385 41.3358623 170.420966 41.3358623 170.420966 46.7375264 169.559728 46.7375264 169.559728 41.3358623 167.625492 41.3358623 167.625492 40.5893774 172.356385 40.5893774"></polyline>
                    <polyline id="Fill-43" fill="#1A1919" points="175.477189 46.7375264 175.477189 40.5893774 179.230908 40.5893774 179.230908 41.3263981 176.339609 41.3263981 176.339609 43.1541623 178.911492 43.1541623 178.911492 43.8722547 176.339609 43.8722547 176.339609 46.0016887 179.453315 46.0016887 179.453315 46.7375264 175.477189 46.7375264"></polyline>
                    <path d="M185.521019,45.8857528 C185.463051,45.7437906 185.384972,45.5639717 185.286781,45.3439302 C185.188591,45.1274377 185.084485,44.8896509 184.972098,44.6353019 C184.859711,44.3809528 184.740226,44.1195057 184.613643,43.8497774 C184.484694,43.5812321 184.366392,43.326883 184.252823,43.0867302 C184.140436,42.8477604 184.03633,42.633634 183.939323,42.4443509 C183.841132,42.2550679 183.76187,42.1095566 183.702719,42.009 C183.638836,42.7081642 183.5856,43.4641132 183.544194,44.2768472 C183.501606,45.0907642 183.466115,45.9105962 183.437723,46.7375264 L182.59423,46.7375264 C182.616708,46.2063509 182.6451,45.6692604 182.673492,45.1274377 C182.703068,44.5867981 182.737375,44.0556226 182.776415,43.5303623 C182.813089,43.0074679 182.855677,42.4975868 182.900632,42.0007189 C182.945587,41.5038509 182.994091,41.0330094 183.047326,40.5893774 L183.799726,40.5893774 C183.960617,40.8508245 184.132155,41.1572264 184.315523,41.5121321 C184.497708,41.8670377 184.682258,42.2385057 184.865626,42.6265358 C185.048994,43.013383 185.225264,43.4014132 185.397985,43.7882604 C185.569523,44.1751075 185.725681,44.5288302 185.867643,44.8482453 C186.010789,44.5288302 186.165764,44.1751075 186.338485,43.7882604 C186.510023,43.4014132 186.687475,43.013383 186.870843,42.6265358 C187.053028,42.2385057 187.237579,41.8670377 187.420947,41.5121321 C187.603132,41.1572264 187.775853,40.8508245 187.93556,40.5893774 L188.689143,40.5893774 C188.890257,42.572117 189.041683,44.6211057 189.14224,46.7375264 L188.298747,46.7375264 C188.269172,45.9105962 188.233681,45.0907642 188.192275,44.2768472 C188.15087,43.4641132 188.097634,42.7081642 188.032568,42.009 C187.973417,42.1095566 187.895338,42.2550679 187.797147,42.4443509 C187.70014,42.633634 187.594851,42.8477604 187.483647,43.0867302 C187.370077,43.326883 187.249409,43.5812321 187.122826,43.8497774 C186.996243,44.1195057 186.876758,44.3809528 186.764372,44.6353019 C186.651985,44.8896509 186.547879,45.1274377 186.449689,45.3439302 C186.351498,45.5639717 186.272236,45.7437906 186.214268,45.8857528 L185.521019,45.8857528" id="Fill-44" fill="#1A1919"></path>
                    <path d="M194.138128,46.1259057 C195.03604,46.1259057 195.485587,45.8183208 195.485587,45.2031509 C195.485587,45.0138679 195.445364,44.8517943 195.366102,44.7204792 C195.285657,44.5867981 195.178002,44.4708623 195.041955,44.3738547 C194.905908,44.2768472 194.749749,44.1916698 194.577028,44.1206887 C194.400758,44.0508906 194.216208,43.9787264 194.022192,43.9077453 C193.797419,43.8308491 193.583292,43.7433057 193.382179,43.6462981 C193.181066,43.5492906 193.008345,43.4333547 192.860468,43.2996736 C192.712591,43.1683585 192.594289,43.0086509 192.509111,42.826466 C192.422751,42.6419151 192.380162,42.4206906 192.380162,42.1604264 C192.380162,41.6221528 192.564713,41.2009981 192.930266,40.9005113 C193.297002,40.5988415 193.802151,40.4485981 194.446896,40.4485981 C194.82073,40.4485981 195.159074,40.4876377 195.464292,40.5669 C195.769511,40.6473453 195.990736,40.7348887 196.133881,40.8295302 L195.859421,41.5298774 C195.734021,41.4529811 195.54947,41.3772679 195.304585,41.3027377 C195.058517,41.2293906 194.773409,41.192717 194.446896,41.192717 C194.282457,41.192717 194.128664,41.2104623 193.986702,41.2459528 C193.84474,41.2826264 193.71934,41.3358623 193.612868,41.4056604 C193.506396,41.4766415 193.422402,41.5665509 193.360885,41.6765717 C193.299368,41.7865925 193.267426,41.9143585 193.267426,42.0622358 C193.267426,42.2278585 193.300551,42.3674547 193.365617,42.4798415 C193.430683,42.5922283 193.521775,42.6904189 193.64126,42.7779623 C193.758379,42.8631396 193.896792,42.9412189 194.051768,43.0122 C194.209109,43.0819981 194.383013,43.1541623 194.572296,43.2239604 C194.837292,43.3316151 195.082177,43.4380868 195.304585,43.5445585 C195.525809,43.6510302 195.718642,43.7776132 195.879532,43.9254906 C196.043972,44.0733679 196.168189,44.2496377 196.258098,44.4543 C196.346825,44.6577792 196.390596,44.9050302 196.390596,45.1936868 C196.390596,45.7331434 196.194215,46.146017 195.801453,46.4370396 C195.407508,46.7256962 194.852672,46.8712075 194.138128,46.8712075 C193.895609,46.8712075 193.670836,46.8558283 193.467357,46.8227038 C193.262694,46.7907623 193.081692,46.7517226 192.921985,46.7079509 C192.762277,46.6629962 192.623864,46.6156755 192.509111,46.5648057 C192.393175,46.5163019 192.303266,46.4725302 192.2382,46.4370396 L192.494915,45.7272283 C192.630962,45.8041245 192.839174,45.8893019 193.116,45.9839434 C193.395192,46.0797679 193.734719,46.1259057 194.138128,46.1259057" id="Fill-45" fill="#1A1919"></path>
                    <path d="M74.6413925,56.2868547 C74.4521094,55.7746075 74.2651925,55.2753736 74.0782755,54.7927019 C73.8925415,54.3123962 73.6973434,53.8474698 73.4974132,53.4038377 C73.2903849,53.8474698 73.0940038,54.3123962 72.9070868,54.7927019 C72.7201698,55.2753736 72.5356189,55.7746075 72.3522509,56.2868547 L74.6413925,56.2868547 Z M75.4493943,58.5677151 C75.3488377,58.3027189 75.2541962,58.0412717 75.1654698,57.7833736 C75.0767434,57.5254755 74.9844679,57.2652113 74.8898264,56.9978491 L72.103817,56.9978491 L71.5454321,58.5677151 L70.6487038,58.5677151 C70.8853075,57.9182377 71.1065321,57.3160811 71.3147434,56.7636113 C71.5217717,56.2099585 71.7240679,55.6846981 71.9228151,55.1878302 C72.1203792,54.6909623 72.3179434,54.2165717 72.5119585,53.7646585 C72.7071566,53.3115623 72.9118189,52.8631981 73.1247623,52.419566 L73.9138358,52.419566 C74.1267792,52.8631981 74.3314415,53.3115623 74.5266396,53.7646585 C74.7218377,54.2165717 74.9182189,54.6909623 75.116966,55.1878302 C75.3145302,55.6846981 75.5168264,56.2099585 75.7238547,56.7636113 C75.930883,57.3160811 76.1532906,57.9182377 76.3898943,58.5677151 L75.4493943,58.5677151 L75.4493943,58.5677151 Z" id="Fill-46" fill="#1A1919"></path>
                    <path d="M81.0131321,57.9560943 C81.9110434,57.9560943 82.3617736,57.6485094 82.3617736,57.0333396 C82.3617736,56.8440566 82.3215509,56.681983 82.2411057,56.5506679 C82.1618434,56.4169868 82.0530057,56.3010509 81.9181415,56.2040434 C81.7820943,56.1070358 81.6259358,56.0218585 81.4520321,55.9508774 C81.2769453,55.8810792 81.0923943,55.8089151 80.8971962,55.737934 C80.6724226,55.6610377 80.4594792,55.5734943 80.258366,55.4764868 C80.0572528,55.3794792 79.882166,55.2635434 79.7342887,55.1298623 C79.5864113,54.9985472 79.4704755,54.8388396 79.3841151,54.6566547 C79.2989377,54.4721038 79.2563491,54.2508792 79.2563491,53.9906151 C79.2563491,53.4523415 79.438534,53.0311868 79.8064528,52.7307 C80.1731887,52.4290302 80.6783377,52.2787868 81.323083,52.2787868 C81.695734,52.2787868 82.0340774,52.3178264 82.3392962,52.3970887 C82.6433321,52.477534 82.8669226,52.5650774 83.0088849,52.6597189 L82.7344245,53.360066 C82.6102075,53.2831698 82.4244736,53.2074566 82.1795887,53.1329264 C81.9335208,53.0595792 81.6484132,53.0229057 81.323083,53.0229057 C81.1574604,53.0229057 81.0036679,53.0406509 80.8617057,53.0761415 C80.7197434,53.1128151 80.5955264,53.1660509 80.4890547,53.2358491 C80.382583,53.3068302 80.2985887,53.3967396 80.2358887,53.5067604 C80.1743717,53.6167811 80.1436132,53.7445472 80.1436132,53.8924245 C80.1436132,54.0580472 80.1755547,54.1976434 80.2406208,54.3088472 C80.3056868,54.422417 80.3979623,54.5206075 80.5162642,54.6081509 C80.633383,54.6933283 80.7717962,54.7714075 80.9279547,54.8423887 C81.0852962,54.9121868 81.258017,54.9843509 81.4473,55.0541491 C81.7134792,55.1618038 81.9571811,55.2682755 82.1795887,55.3747472 C82.4008132,55.4812189 82.5924623,55.6078019 82.7557189,55.7556792 C82.9189755,55.9035566 83.0443755,56.0798264 83.1331019,56.2833057 C83.2218283,56.4879679 83.2656,56.7352189 83.2656,57.0238755 C83.2656,57.5633321 83.0692189,57.9762057 82.6764566,58.2672283 C82.2825113,58.5558849 81.7288585,58.7013962 81.0131321,58.7013962 C80.7694302,58.7013962 80.5470226,58.686017 80.3423604,58.6528925 C80.1388811,58.6209509 79.9566962,58.5819113 79.7969887,58.5381396 C79.6372811,58.4931849 79.5000509,58.4458642 79.3841151,58.3949943 C79.2693623,58.3464906 79.1782698,58.3027189 79.1143868,58.2672283 L79.3711019,57.557417 C79.5071491,57.6343132 79.7141774,57.7194906 79.9921868,57.8141321 C80.2701962,57.9099566 80.6097226,57.9560943 81.0131321,57.9560943" id="Fill-47" fill="#1A1919"></path>
                    <path d="M87.9503547,57.9560943 C88.8494491,57.9560943 89.2989962,57.6485094 89.2989962,57.0333396 C89.2989962,56.8440566 89.2599566,56.681983 89.1795113,56.5506679 C89.1002491,56.4169868 88.9914113,56.3010509 88.8553642,56.2040434 C88.719317,56.1070358 88.5643415,56.0218585 88.3892547,55.9508774 C88.2153509,55.8810792 88.0308,55.8089151 87.8356019,55.737934 C87.6108283,55.6610377 87.3978849,55.5734943 87.1967717,55.4764868 C86.9956585,55.3794792 86.8205717,55.2635434 86.6726943,55.1298623 C86.524817,54.9985472 86.4088811,54.8388396 86.3225208,54.6566547 C86.2373434,54.4721038 86.1935717,54.2508792 86.1935717,53.9906151 C86.1935717,53.4523415 86.3769396,53.0311868 86.7436755,52.7307 C87.1104113,52.4290302 87.6167434,52.2787868 88.2614887,52.2787868 C88.6341396,52.2787868 88.972483,52.3178264 89.2765189,52.3970887 C89.5817377,52.477534 89.8053283,52.5650774 89.9472906,52.6597189 L89.6716472,53.360066 C89.5474302,53.2831698 89.3628792,53.2074566 89.1179943,53.1329264 C88.8719264,53.0595792 88.5868189,53.0229057 88.2614887,53.0229057 C88.095866,53.0229057 87.9420736,53.0406509 87.8001113,53.0761415 C87.6581491,53.1128151 87.5339321,53.1660509 87.4274604,53.2358491 C87.3209887,53.3068302 87.2358113,53.3967396 87.1742943,53.5067604 C87.1115943,53.6167811 87.0808358,53.7445472 87.0808358,53.8924245 C87.0808358,54.0580472 87.1139604,54.1976434 87.1790264,54.3088472 C87.2440925,54.422417 87.3351849,54.5206075 87.4534868,54.6081509 C87.5717887,54.6933283 87.7102019,54.7714075 87.8663604,54.8423887 C88.0225189,54.9121868 88.1964226,54.9843509 88.3857057,55.0541491 C88.6518849,55.1618038 88.8955868,55.2682755 89.1179943,55.3747472 C89.3392189,55.4812189 89.5308679,55.6078019 89.6941245,55.7556792 C89.8573811,55.9035566 89.9827811,56.0798264 90.0715075,56.2833057 C90.160234,56.4879679 90.2040057,56.7352189 90.2040057,57.0238755 C90.2040057,57.5633321 90.0076245,57.9762057 89.6148623,58.2672283 C89.220917,58.5558849 88.6660811,58.7013962 87.9503547,58.7013962 C87.7078358,58.7013962 87.4854283,58.686017 87.280766,58.6528925 C87.0761038,58.6209509 86.8951019,58.5819113 86.7353943,58.5381396 C86.5756868,58.4931849 86.4384566,58.4458642 86.3225208,58.3949943 C86.2077679,58.3464906 86.1166755,58.3027189 86.0516094,58.2672283 L86.3095075,57.557417 C86.4455547,57.6343132 86.652583,57.7194906 86.9305925,57.8141321 C87.2086019,57.9099566 87.5481283,57.9560943 87.9503547,57.9560943" id="Fill-48" fill="#1A1919"></path>
                    <path d="M94.1174321,55.490683 C94.1174321,55.8621509 94.1635698,56.2016774 94.2582113,56.5057132 C94.3528528,56.8097491 94.487717,57.0688302 94.6628038,57.2817736 C94.8367075,57.494717 95.0496509,57.6603396 95.301634,57.7739094 C95.552434,57.8898453 95.8351755,57.9478132 96.1486755,57.9478132 C96.4621755,57.9478132 96.7425509,57.8898453 96.9909849,57.7739094 C97.2394189,57.6603396 97.4511792,57.494717 97.625083,57.2817736 C97.8001698,57.0688302 97.9338509,56.8097491 98.0284925,56.5057132 C98.123134,56.2016774 98.1716377,55.8621509 98.1716377,55.490683 C98.1716377,55.1168491 98.123134,54.7785057 98.0284925,54.4732868 C97.9338509,54.1680679 97.8001698,53.9101698 97.625083,53.6972264 C97.4511792,53.484283 97.2394189,53.3210264 96.9909849,53.2050906 C96.7425509,53.0891547 96.4621755,53.0311868 96.1486755,53.0311868 C95.8351755,53.0311868 95.552434,53.0891547 95.301634,53.2050906 C95.0496509,53.3210264 94.8367075,53.484283 94.6628038,53.6972264 C94.487717,53.9101698 94.3528528,54.1680679 94.2582113,54.4732868 C94.1635698,54.7785057 94.1174321,55.1168491 94.1174321,55.490683 Z M93.2124226,55.490683 C93.2124226,54.9630566 93.2893189,54.4993132 93.4466604,54.0970868 C93.6040019,53.6948604 93.8169453,53.358883 94.0854906,53.0891547 C94.3552189,52.8206094 94.6675358,52.6183132 95.0259906,52.482266 C95.3844453,52.3450358 95.7641943,52.2787868 96.1664208,52.2787868 C96.5627321,52.2787868 96.936566,52.3450358 97.2891057,52.482266 C97.6404623,52.6183132 97.9504132,52.8206094 98.2154094,53.0891547 C98.4815887,53.358883 98.6945321,53.6948604 98.8506906,54.0970868 C99.005666,54.4993132 99.0849283,54.9630566 99.0849283,55.490683 C99.0849283,56.0171264 99.005666,56.4808698 98.8506906,56.8830962 C98.6945321,57.2853226 98.4815887,57.620117 98.2154094,57.8898453 C97.9504132,58.1583906 97.6404623,58.3618698 97.2891057,58.497917 C96.936566,58.6339642 96.5627321,58.7013962 96.1664208,58.7013962 C95.7641943,58.7013962 95.3844453,58.6339642 95.0259906,58.497917 C94.6675358,58.3618698 94.3552189,58.1583906 94.0854906,57.8898453 C93.8169453,57.620117 93.6040019,57.2853226 93.4466604,56.8830962 C93.2893189,56.4808698 93.2124226,56.0171264 93.2124226,55.490683 L93.2124226,55.490683 Z" id="Fill-49" fill="#1A1919"></path>
                    <path d="M105.224796,58.7013962 C104.794177,58.7013962 104.400232,58.6304151 104.045326,58.4896358 C103.689238,58.3464906 103.385202,58.1406453 103.130853,57.8673679 C102.876504,57.5952736 102.680123,57.2604792 102.541709,56.8606189 C102.403296,56.4607585 102.333498,56.0041132 102.333498,55.490683 C102.333498,54.9748868 102.410394,54.5170585 102.567736,54.1183811 C102.723894,53.7208868 102.936838,53.3837264 103.201834,53.1128151 C103.468013,52.8395377 103.78033,52.6325094 104.13287,52.4905472 C104.488958,52.3485849 104.868708,52.2787868 105.269751,52.2787868 C105.5241,52.2787868 105.753606,52.294166 105.955902,52.3320226 C106.161747,52.3663302 106.3392,52.4077358 106.490626,52.4550566 C106.64087,52.5023774 106.762721,52.5496981 106.857362,52.5970189 C106.952004,52.6443396 107.01707,52.6810132 107.05256,52.7034906 L106.804126,53.4133019 C106.750891,53.3778113 106.675177,53.3387717 106.573438,53.297366 C106.474064,53.2571434 106.359311,53.2157377 106.232728,53.1743321 C106.103779,53.1329264 105.965366,53.0986189 105.815123,53.0714094 C105.664879,53.045383 105.51227,53.0311868 105.358477,53.0311868 C105.031964,53.0311868 104.739758,53.0879717 104.479494,53.2003585 C104.21923,53.3139283 103.996823,53.4748189 103.814638,53.6877623 C103.63127,53.9018887 103.490491,54.1609698 103.3923,54.4638226 C103.294109,54.7690415 103.245606,55.110934 103.245606,55.490683 C103.245606,55.8562358 103.29056,56.1898472 103.375738,56.4927 C103.460915,56.7931868 103.589864,57.0522679 103.761402,57.2699434 C103.93294,57.4840698 104.147066,57.6520585 104.403781,57.7703604 C104.662862,57.8886623 104.962166,57.9478132 105.305242,57.9478132 C105.701553,57.9478132 106.030432,57.9064075 106.289513,57.8235962 C106.549777,57.7407849 106.744975,57.6662547 106.876291,57.6023717 L107.097515,58.311 C107.056109,58.3417585 106.982762,58.3784321 106.876291,58.4222038 C106.769819,58.4659755 106.636138,58.5097472 106.47643,58.5511528 C106.316723,58.5925585 106.129806,58.6280491 105.916862,58.6576245 C105.705102,58.6872 105.47323,58.7013962 105.224796,58.7013962" id="Fill-50" fill="#1A1919"></path>
                    <polygon id="Fill-51" fill="#1A1919" points="110.299947 58.5677151 111.160002 58.5677151 111.160002 52.419566 110.299947 52.419566"></polygon>
                    <path d="M118.206062,56.2868547 C118.016779,55.7746075 117.828679,55.2753736 117.642945,54.7927019 C117.456028,54.3123962 117.262013,53.8474698 117.0609,53.4038377 C116.853872,53.8474698 116.657491,54.3123962 116.471757,54.7927019 C116.28484,55.2753736 116.100289,55.7746075 115.916921,56.2868547 L118.206062,56.2868547 Z M119.014064,58.5677151 C118.912325,58.3027189 118.818866,58.0412717 118.728957,57.7833736 C118.641413,57.5254755 118.549138,57.2652113 118.454496,56.9978491 L115.667304,56.9978491 L115.108919,58.5677151 L114.213374,58.5677151 C114.449977,57.9182377 114.672385,57.3160811 114.87823,56.7636113 C115.085258,56.2099585 115.288738,55.6846981 115.486302,55.1878302 C115.683866,54.6909623 115.88143,54.2165717 116.076628,53.7646585 C116.270643,53.3115623 116.476489,52.8631981 116.689432,52.419566 L117.478506,52.419566 C117.691449,52.8631981 117.894928,53.3115623 118.090126,53.7646585 C118.285325,54.2165717 118.481706,54.6909623 118.680453,55.1878302 C118.8792,55.6846981 119.080313,56.2099585 119.288525,56.7636113 C119.495553,57.3160811 119.716777,57.9182377 119.954564,58.5677151 L119.014064,58.5677151 L119.014064,58.5677151 Z" id="Fill-52" fill="#1A1919"></path>
                    <polyline id="Fill-53" fill="#1A1919" points="126.546345 52.419566 126.546345 53.1660509 124.612109 53.1660509 124.612109 58.5677151 123.752055 58.5677151 123.752055 53.1660509 121.817819 53.1660509 121.817819 52.419566 126.546345 52.419566"></polyline>
                    <polygon id="Fill-54" fill="#1A1919" points="129.669515 58.5677151 130.52957 58.5677151 130.52957 52.419566 129.669515 52.419566"></polygon>
                    <path d="M134.931583,55.490683 C134.931583,55.8621509 134.977721,56.2016774 135.072362,56.5057132 C135.167004,56.8097491 135.301868,57.0688302 135.476955,57.2817736 C135.650858,57.494717 135.864985,57.6603396 136.115785,57.7739094 C136.366585,57.8898453 136.649326,57.9478132 136.962826,57.9478132 C137.276326,57.9478132 137.556702,57.8898453 137.805136,57.7739094 C138.05357,57.6603396 138.26533,57.494717 138.440417,57.2817736 C138.614321,57.0688302 138.748002,56.8097491 138.842643,56.5057132 C138.937285,56.2016774 138.985789,55.8621509 138.985789,55.490683 C138.985789,55.1168491 138.937285,54.7785057 138.842643,54.4732868 C138.748002,54.1680679 138.614321,53.9101698 138.440417,53.6972264 C138.26533,53.484283 138.05357,53.3210264 137.805136,53.2050906 C137.556702,53.0891547 137.276326,53.0311868 136.962826,53.0311868 C136.649326,53.0311868 136.366585,53.0891547 136.115785,53.2050906 C135.864985,53.3210264 135.650858,53.484283 135.476955,53.6972264 C135.301868,53.9101698 135.167004,54.1680679 135.072362,54.4732868 C134.977721,54.7785057 134.931583,55.1168491 134.931583,55.490683 Z M134.025391,55.490683 C134.025391,54.9630566 134.104653,54.4993132 134.260811,54.0970868 C134.418153,53.6948604 134.631096,53.358883 134.899642,53.0891547 C135.16937,52.8206094 135.48287,52.6183132 135.840142,52.482266 C136.197413,52.3450358 136.578345,52.2787868 136.980572,52.2787868 C137.376883,52.2787868 137.750717,52.3450358 138.103257,52.482266 C138.454613,52.6183132 138.764564,52.8206094 139.030743,53.0891547 C139.29574,53.358883 139.508683,53.6948604 139.664842,54.0970868 C139.821,54.4993132 139.899079,54.9630566 139.899079,55.490683 C139.899079,56.0171264 139.821,56.4808698 139.664842,56.8830962 C139.508683,57.2853226 139.29574,57.620117 139.030743,57.8898453 C138.764564,58.1583906 138.454613,58.3618698 138.103257,58.497917 C137.750717,58.6339642 137.376883,58.7013962 136.980572,58.7013962 C136.578345,58.7013962 136.197413,58.6339642 135.840142,58.497917 C135.48287,58.3618698 135.16937,58.1583906 134.899642,57.8898453 C134.631096,57.620117 134.418153,57.2853226 134.260811,56.8830962 C134.104653,56.4808698 134.025391,56.0171264 134.025391,55.490683 L134.025391,55.490683 Z" id="Fill-55" fill="#1A1919"></path>
                    <path d="M147.609996,58.5677151 C147.479864,58.3500396 147.329621,58.1039717 147.161632,57.8318774 C146.99246,57.560966 146.812642,57.2770415 146.61626,56.9848358 C146.422245,56.6914472 146.218766,56.3945094 146.008189,56.0928396 C145.797611,55.7911698 145.590583,55.4989642 145.383555,55.2197717 C145.176526,54.9382132 144.975413,54.673217 144.779032,54.424783 C144.585017,54.1763491 144.405198,53.9586736 144.238392,53.7693906 L144.238392,58.5677151 L143.3949,58.5677151 L143.3949,52.419566 L144.078685,52.419566 C144.356694,52.7153208 144.654815,53.0595792 144.970681,53.4535245 C145.28773,53.8474698 145.600047,54.2520623 145.911181,54.6684849 C146.221132,55.0860906 146.514521,55.4954151 146.788981,55.8976415 C147.064625,56.2998679 147.296496,56.6583226 147.485779,56.9706396 L147.485779,52.419566 L148.328089,52.419566 L148.328089,58.5677151 L147.609996,58.5677151" id="Fill-56" fill="#1A1919"></path>
                    <g id="Group-59">
                        <mask id="mask-2" fill="white">
                            <use xlink:href="#path-1"></use>
                        </mask>
                        <g id="Clip-58"></g>
                        <polygon id="Fill-57" fill="url(#linearGradient-3)" mask="url(#mask-2)" points="0 62.6290189 196.390596 62.6290189 196.390596 0.955879245 0 0.955879245"></polygon>
                    </g>
                    <g id="Group-62" transform="translate(0.000000, 27.209434)">
                        <mask id="mask-5" fill="white">
                            <use xlink:href="#path-4"></use>
                        </mask>
                        <g id="Clip-61"></g>
                        <polygon id="Fill-60" fill="url(#linearGradient-6)" mask="url(#mask-5)" points="0 35.4195849 196.390596 35.4195849 196.390596 -26.2535547 0 -26.2535547"></polygon>
                    </g>
                </g>
            </g>
        </g>
    </g>
</svg>